<svg width="25" height="24" viewBox="0 0 25 24" fill="none" xmlns="http://www.w3.org/2000/svg">
<path fill-rule="evenodd" clip-rule="evenodd" d="M7.74155 3.90915C9.05876 2.67975 10.8314 2 12.6665 2C14.5016 2 16.2743 2.67975 17.5915 3.90915C18.911 5.14072 19.6665 6.82644 19.6665 8.6C19.6665 11.1091 20.2955 12.8249 20.9923 13.9651L21.0032 13.983C21.3796 14.5989 21.6754 15.0828 21.8743 15.4326C21.9738 15.6077 22.063 15.7732 22.1285 15.9177C22.1611 15.9896 22.1973 16.077 22.2257 16.1711C22.2482 16.2457 22.2963 16.4193 22.2779 16.6307C22.2665 16.7605 22.2394 16.9968 22.103 17.24C21.9666 17.4831 21.7791 17.6295 21.6743 17.7069C21.5206 17.8204 21.3672 17.8714 21.2851 17.8952C21.1913 17.9223 21.1007 17.9384 21.0258 17.949C20.8767 17.97 20.7053 17.9806 20.5296 17.9871C20.1799 18 19.6934 18 19.0843 18H6.24874C5.63964 18 5.15311 18 4.80343 17.9871C4.62774 17.9806 4.45634 17.97 4.30719 17.949C4.23235 17.9384 4.14171 17.9223 4.04791 17.8952C3.96586 17.8714 3.81245 17.8204 3.65871 17.7069C3.5539 17.6295 3.36638 17.4831 3.23001 17.24C3.09364 16.9968 3.06651 16.7605 3.05516 16.6307C3.03668 16.4193 3.08482 16.2457 3.10731 16.1711C3.13568 16.077 3.17195 15.9896 3.20454 15.9177C3.27004 15.7732 3.35921 15.6077 3.45873 15.4326C3.6576 15.0828 3.95329 14.599 4.3296 13.9833L4.3407 13.9651C5.03755 12.8249 5.66651 11.1091 5.66651 8.6C5.66651 6.82644 6.42201 5.14072 7.74155 3.90915ZM8.66651 21C8.66651 20.4477 9.11423 20 9.66651 20H15.6665C16.2188 20 16.6665 20.4477 16.6665 21C16.6665 21.5523 16.2188 22 15.6665 22H9.66651C9.11423 22 8.66651 21.5523 8.66651 21Z" fill="#3673B9" style="fill:#3673B9;fill:color(display-p3 0.2118 0.4510 0.7255);fill-opacity:1;"/>
</svg>
