<svg width="25" height="24" viewBox="0 0 25 24" fill="none" xmlns="http://www.w3.org/2000/svg">
<path fill-rule="evenodd" clip-rule="evenodd" d="M3.33325 2C3.88554 2 4.33325 2.44772 4.33325 3V17.8C4.33325 18.3766 4.33403 18.7488 4.35718 19.0322C4.37938 19.3038 4.41705 19.4045 4.44225 19.454C4.53812 19.6422 4.6911 19.7951 4.87926 19.891C4.92871 19.9162 5.02943 19.9539 5.30109 19.9761C5.58443 19.9992 5.9567 20 6.53325 20H21.3333C21.8855 20 22.3333 20.4477 22.3333 21C22.3333 21.5523 21.8855 22 21.3333 22H6.49469C5.96755 22 5.51279 22 5.13823 21.9694C4.74288 21.9371 4.34966 21.8658 3.97128 21.673C3.4068 21.3854 2.94785 20.9265 2.66023 20.362C2.46744 19.9836 2.39612 19.5904 2.36382 19.195C2.33322 18.8205 2.33323 18.3657 2.33325 17.8385L2.33325 3C2.33325 2.44772 2.78097 2 3.33325 2ZM21.9734 6.23178C22.3977 6.58534 22.455 7.21591 22.1015 7.64018L17.1015 13.6402C16.9216 13.856 16.6592 13.9862 16.3786 13.999C16.0979 14.0117 15.8248 13.9058 15.6261 13.7071L12.4005 10.4814L8.10148 15.6402C7.74791 16.0645 7.11735 16.1218 6.69307 15.7682C6.26879 15.4147 6.21147 14.7841 6.56503 14.3598L11.565 8.35982C11.7449 8.14398 12.0073 8.01376 12.2879 8.00103C12.5686 7.9883 12.8417 8.09422 13.0404 8.29289L16.2661 11.5186L20.565 6.35982C20.9186 5.93554 21.5492 5.87821 21.9734 6.23178Z" fill="#3673B9" style="fill:#3673B9;fill:color(display-p3 0.2118 0.4510 0.7255);fill-opacity:1;"/>
</svg>
