<svg width="176" height="36" viewBox="0 0 176 36" fill="none" xmlns="http://www.w3.org/2000/svg">
<g clip-path="url(#clip0_54815_1006)">
<path d="M14.7228 19.8594C5.90003 18.3762 4.03514 3.3917 4.03514 3.3917C3.80612 3.3917 1.53772 3.4026 0.719782 3.70797L0 3.96971V21.6698V23.033L1.33051 22.7386C1.38503 22.7277 8.51742 21.5171 14.7228 24.1236V19.8594Z" fill="#8DC644" style="fill:#8DC644;fill:color(display-p3 0.5529 0.7765 0.2667);fill-opacity:1;"/>
<path d="M16.6313 19.8594C25.4541 18.3762 27.319 3.3917 27.319 3.3917C27.548 3.3917 29.8164 3.4026 30.6344 3.70797L31.3541 3.96971V21.6698V23.033L30.0236 22.7386C29.9691 22.7277 22.8367 21.5171 16.6313 24.1236V19.8594Z" fill="#8DC644" style="fill:#8DC644;fill:color(display-p3 0.5529 0.7765 0.2667);fill-opacity:1;"/>
<path d="M14.581 20.6883V31.5832C14.581 34.0151 16.3587 36 18.5507 36C20.7428 36 22.5204 34.0151 22.5204 31.5832V31.4305C22.5204 30.329 23.0548 29.3693 23.8182 28.944C24.3526 30.3399 25.7158 31.3323 27.2972 31.3323C29.3584 31.3323 31.027 29.6637 31.027 27.6025C31.027 25.5414 29.3584 23.8728 27.2972 23.8728C25.5632 23.8728 24.1127 25.0506 23.6874 26.6537C21.7679 27.1881 20.3393 29.1185 20.3393 31.4305V31.5832C20.3393 32.8155 19.5323 33.8188 18.5507 33.8188C17.5692 33.8188 16.7622 32.8155 16.7622 31.5832V20.6883M27.3081 29.1512C26.4574 29.1512 25.7595 28.4532 25.7595 27.6025C25.7595 26.7519 26.4574 26.0539 27.3081 26.0539C28.1587 26.0539 28.8567 26.7519 28.8567 27.6025C28.8567 28.4532 28.1587 29.1512 27.3081 29.1512ZM14.581 20.6883C14.0467 20.3611 13.3378 20.0448 12.498 19.7613C7.30688 17.9945 3.81702 13.1306 3.81702 7.66677V1.5159L4.60224 1.28688C5.70373 0.959709 6.81612 0.916086 7.55771 0.937898V0.730688C7.55771 0.327174 7.88488 0 8.2884 0H9.58619C10.6986 0 11.6147 0.90518 11.6147 2.02848C11.6147 3.14087 10.7095 4.05695 9.58619 4.05695H8.2884C7.88488 4.05695 7.55771 3.72978 7.55771 3.32626V3.12996C7.1542 3.11905 6.598 3.11905 5.99818 3.21721V7.68858C5.99818 12.2254 8.88822 16.2496 13.196 17.711C14.1775 18.0382 15.0064 18.409 15.6716 18.8125C16.3369 18.409 17.1657 18.0491 18.1472 17.711C22.455 16.2496 25.345 12.2145 25.345 7.68858V3.21721C24.7452 3.12996 24.189 3.11905 23.7855 3.12996V3.32626C23.7855 3.72978 23.4583 4.05695 23.0548 4.05695H21.757C20.6447 4.05695 19.7286 3.15177 19.7286 2.02848C19.7395 0.90518 20.6556 0 21.768 0H23.0657C23.4693 0 23.7964 0.327174 23.7964 0.730688V0.937898C24.538 0.916086 25.6504 0.959709 26.7519 1.28688L27.5371 1.5159V7.66677C27.5371 13.1306 24.0473 17.9945 18.8561 19.7613C18.0164 20.0448 17.3075 20.3611 16.7731 20.6883" fill="#3673B9" style="fill:#3673B9;fill:color(display-p3 0.2118 0.4510 0.7255);fill-opacity:1;"/>
<path d="M59.2729 9.13905C60.5271 9.13905 61.6286 9.37897 62.5992 9.86974C63.5698 10.3605 64.3223 11.1021 64.8676 12.1054C65.4129 13.1088 65.6855 14.4065 65.6855 15.9879V24.9524H62.0212V16.4677C62.0212 15.0827 61.7158 14.0467 61.116 13.3596C60.5053 12.6725 59.6437 12.3344 58.5095 12.3344C57.7134 12.3344 57.0045 12.5089 56.3829 12.8579C55.7722 13.2069 55.2923 13.7304 54.9433 14.4065C54.6053 15.0936 54.4308 15.9552 54.4308 17.013V24.9524H50.7664V16.4677C50.7664 15.0827 50.4611 14.0467 49.8613 13.3596C49.2505 12.6725 48.389 12.3344 47.2548 12.3344C46.4586 12.3344 45.7498 12.5089 45.1281 12.8579C44.5174 13.2069 44.0376 13.7304 43.6886 14.4065C43.3505 15.0936 43.176 15.9552 43.176 17.013V24.9524H39.5117V9.31354H43.0015V13.4686L42.3908 12.2363C42.9143 11.2221 43.6886 10.4477 44.6919 9.92426C45.6952 9.40079 46.8403 9.12814 48.1381 9.12814C49.5995 9.12814 50.8755 9.48803 51.9661 10.2078C53.0457 10.9276 53.7655 12.0291 54.1145 13.4905L52.6749 12.9888C53.1875 11.8219 54.0273 10.884 55.1942 10.1751C56.372 9.48803 57.7243 9.13905 59.2729 9.13905Z" fill="#032A51" style="fill:#032A51;fill:color(display-p3 0.0118 0.1647 0.3176);fill-opacity:1;"/>
<path d="M76.2642 25.1596C74.661 25.1596 73.2323 24.8107 71.9891 24.1236C70.7349 23.4256 69.7534 22.4768 69.0336 21.2663C68.3138 20.0557 67.9539 18.6816 67.9539 17.133C67.9539 15.5735 68.3138 14.1884 69.0336 12.9888C69.7534 11.7892 70.7458 10.8513 71.9891 10.1642C73.2433 9.47713 74.661 9.13905 76.2642 9.13905C77.8891 9.13905 79.3287 9.47713 80.5829 10.1642C81.837 10.8513 82.8294 11.7892 83.5383 12.9779C84.2472 14.1666 84.6071 15.5517 84.6071 17.133C84.6071 18.6707 84.2472 20.0557 83.5383 21.2663C82.8294 22.4768 81.837 23.4256 80.5829 24.1236C79.3178 24.8216 77.8782 25.1596 76.2642 25.1596ZM76.2642 22.0297C77.1584 22.0297 77.9655 21.8334 78.6634 21.4408C79.3614 21.0482 79.9176 20.4811 80.3211 19.7395C80.7246 18.9979 80.9209 18.1254 80.9209 17.133C80.9209 16.1188 80.7246 15.2463 80.3211 14.5156C79.9176 13.7849 79.3723 13.2178 78.6634 12.8361C77.9655 12.4435 77.1693 12.2472 76.286 12.2472C75.3917 12.2472 74.5956 12.4435 73.8976 12.8361C73.1996 13.2287 72.6543 13.7849 72.2399 14.5156C71.8255 15.2463 71.6292 16.1188 71.6292 17.133C71.6292 18.1254 71.8364 18.9979 72.2399 19.7395C72.6543 20.4811 73.1996 21.0482 73.8976 21.4408C74.5956 21.8334 75.3808 22.0297 76.2642 22.0297Z" fill="#032A51" style="fill:#032A51;fill:color(display-p3 0.0118 0.1647 0.3176);fill-opacity:1;"/>
<path d="M86.9518 24.9633V3.22811H90.6162V12.9561L90.3217 17.1112L90.4417 21.2663V24.9524H86.9518V24.9633ZM95.6219 25.1596C94.2914 25.1596 93.1136 24.8652 92.0775 24.2763C91.0415 23.6874 90.2236 22.804 89.6347 21.6262C89.0348 20.4483 88.7404 18.9434 88.7404 17.133C88.7404 15.3008 89.0457 13.7958 89.6674 12.618C90.289 11.4402 91.1069 10.5677 92.1539 10.0006C93.2008 9.4226 94.3569 9.13905 95.6219 9.13905C97.1596 9.13905 98.5229 9.46622 99.7116 10.1315C100.889 10.7967 101.827 11.7237 102.525 12.9125C103.223 14.1012 103.561 15.508 103.561 17.133C103.561 18.758 103.212 20.1648 102.525 21.3535C101.827 22.5423 100.889 23.4802 99.7116 24.1563C98.5229 24.8325 97.1596 25.1596 95.6219 25.1596ZM95.2075 22.0297C96.0909 22.0297 96.8761 21.8334 97.5632 21.4408C98.2611 21.0482 98.8064 20.4811 99.2208 19.7395C99.6353 18.9979 99.8316 18.1254 99.8316 17.133C99.8316 16.1188 99.6244 15.2463 99.2208 14.5156C98.8064 13.7849 98.2611 13.2178 97.5632 12.8361C96.8652 12.4435 96.08 12.2472 95.2075 12.2472C94.3241 12.2472 93.5389 12.4435 92.83 12.8361C92.1321 13.2287 91.5759 13.7849 91.1615 14.5156C90.747 15.2463 90.5507 16.1188 90.5507 17.133C90.5507 18.1254 90.758 18.9979 91.1615 19.7395C91.5759 20.4811 92.1321 21.0482 92.83 21.4408C93.5389 21.8334 94.335 22.0297 95.2075 22.0297Z" fill="#032A51" style="fill:#032A51;fill:color(display-p3 0.0118 0.1647 0.3176);fill-opacity:1;"/>
<path d="M107.716 6.73978C107.029 6.73978 106.473 6.52166 106.037 6.09633C105.601 5.67101 105.383 5.14753 105.383 4.54771C105.383 3.92608 105.601 3.4026 106.037 2.97728C106.473 2.56286 107.04 2.34474 107.716 2.34474C108.404 2.34474 108.96 2.54105 109.396 2.94456C109.832 3.34808 110.05 3.84974 110.05 4.44956C110.05 5.093 109.832 5.63829 109.407 6.07452C108.992 6.52166 108.425 6.73978 107.716 6.73978ZM105.873 24.9633V9.31354H109.538V24.9524H105.873V24.9633Z" fill="#032A51" style="fill:#032A51;fill:color(display-p3 0.0118 0.1647 0.3176);fill-opacity:1;"/>
<path d="M119.789 25.1596C118.284 25.1596 116.932 24.8216 115.732 24.1454C114.533 23.4692 113.584 22.5423 112.908 21.3426C112.221 20.1539 111.882 18.747 111.882 17.1221C111.882 15.4971 112.221 14.0903 112.908 12.9015C113.595 11.7128 114.533 10.7858 115.732 10.1206C116.932 9.45532 118.284 9.12814 119.789 9.12814C121.098 9.12814 122.265 9.41169 123.301 9.9897C124.337 10.5677 125.155 11.4402 125.766 12.6071C126.365 13.774 126.671 15.279 126.671 17.1221C126.671 18.9434 126.376 20.4374 125.787 21.6153C125.198 22.7931 124.391 23.6765 123.355 24.2654C122.33 24.8761 121.141 25.1596 119.789 25.1596ZM120.225 22.0297C121.109 22.0297 121.894 21.8334 122.581 21.4408C123.279 21.0482 123.835 20.4811 124.25 19.7395C124.664 18.9979 124.882 18.1254 124.882 17.133C124.882 16.1188 124.675 15.2463 124.25 14.5156C123.824 13.7849 123.268 13.2178 122.581 12.8361C121.883 12.4435 121.098 12.2472 120.225 12.2472C119.342 12.2472 118.557 12.4435 117.87 12.8361C117.172 13.2287 116.616 13.7849 116.201 14.5156C115.776 15.2463 115.569 16.1188 115.569 17.133C115.569 18.1254 115.776 18.9979 116.201 19.7395C116.616 20.4811 117.183 21.0482 117.87 21.4408C118.568 21.8334 119.353 22.0297 120.225 22.0297ZM124.969 24.9633V21.2663L125.111 17.1112L124.817 12.9561V3.22811H128.448V24.9633H124.969Z" fill="#032A51" style="fill:#032A51;fill:color(display-p3 0.0118 0.1647 0.3176);fill-opacity:1;"/>
<path d="M139.147 25.1596C137.544 25.1596 136.115 24.8107 134.872 24.1236C133.618 23.4256 132.636 22.4768 131.916 21.2663C131.197 20.0557 130.837 18.6816 130.837 17.133C130.837 15.5735 131.197 14.1884 131.916 12.9888C132.636 11.7892 133.629 10.8513 134.872 10.1642C136.126 9.47713 137.544 9.13905 139.147 9.13905C140.772 9.13905 142.211 9.47713 143.466 10.1642C144.72 10.8513 145.712 11.7892 146.421 12.9779C147.13 14.1666 147.49 15.5517 147.49 17.133C147.49 18.6707 147.13 20.0557 146.421 21.2663C145.712 22.4768 144.72 23.4256 143.466 24.1236C142.211 24.8216 140.772 25.1596 139.147 25.1596ZM139.147 22.0297C140.041 22.0297 140.848 21.8334 141.546 21.4408C142.244 21.0482 142.8 20.4811 143.204 19.7395C143.607 18.9979 143.804 18.1254 143.804 17.133C143.804 16.1188 143.607 15.2463 143.204 14.5156C142.8 13.7849 142.255 13.2178 141.546 12.8361C140.848 12.4435 140.052 12.2472 139.169 12.2472C138.274 12.2472 137.478 12.4435 136.78 12.8361C136.082 13.2287 135.537 13.7849 135.123 14.5156C134.708 15.2463 134.512 16.1188 134.512 17.133C134.512 18.1254 134.719 18.9979 135.123 19.7395C135.537 20.4811 136.082 21.0482 136.78 21.4408C137.489 21.8334 138.274 22.0297 139.147 22.0297Z" fill="#032A51" style="fill:#032A51;fill:color(display-p3 0.0118 0.1647 0.3176);fill-opacity:1;"/>
<path d="M147.762 12.3672V9.43351H158.188V12.3672H147.762ZM155.735 25.1596C154.011 25.1596 152.692 24.7125 151.754 23.8291C150.816 22.9458 150.347 21.6262 150.347 19.8922V5.85641H154.011V19.8049C154.011 20.5465 154.197 21.1245 154.579 21.528C154.96 21.9424 155.495 22.1387 156.171 22.1387C156.989 22.1387 157.676 21.9206 158.221 21.4953L159.246 24.1018C158.821 24.4508 158.287 24.7125 157.665 24.8979C157.043 25.0724 156.4 25.1596 155.735 25.1596Z" fill="#032A51" style="fill:#032A51;fill:color(display-p3 0.0118 0.1647 0.3176);fill-opacity:1;"/>
<path d="M167.6 25.1596C165.997 25.1596 164.568 24.8107 163.325 24.1236C162.071 23.4256 161.089 22.4768 160.37 21.2663C159.65 20.0557 159.29 18.6816 159.29 17.133C159.29 15.5735 159.65 14.1884 160.37 12.9888C161.089 11.7892 162.082 10.8513 163.325 10.1642C164.579 9.47713 165.997 9.13905 167.6 9.13905C169.225 9.13905 170.665 9.47713 171.919 10.1642C173.173 10.8513 174.165 11.7892 174.874 12.9779C175.583 14.1666 175.943 15.5517 175.943 17.133C175.943 18.6707 175.583 20.0557 174.874 21.2663C174.165 22.4768 173.173 23.4256 171.919 24.1236C170.654 24.8216 169.214 25.1596 167.6 25.1596ZM167.6 22.0297C168.494 22.0297 169.301 21.8334 169.999 21.4408C170.697 21.0482 171.254 20.4811 171.657 19.7395C172.061 18.9979 172.257 18.1254 172.257 17.133C172.257 16.1188 172.061 15.2463 171.657 14.5156C171.254 13.7849 170.708 13.2178 169.999 12.8361C169.301 12.4435 168.505 12.2472 167.622 12.2472C166.728 12.2472 165.932 12.4435 165.234 12.8361C164.536 13.2287 163.99 13.7849 163.576 14.5156C163.161 15.2463 162.965 16.1188 162.965 17.133C162.965 18.1254 163.172 18.9979 163.576 19.7395C163.99 20.4811 164.536 21.0482 165.234 21.4408C165.932 21.8334 166.717 22.0297 167.6 22.0297Z" fill="#032A51" style="fill:#032A51;fill:color(display-p3 0.0118 0.1647 0.3176);fill-opacity:1;"/>
</g>
<defs>
<clipPath id="clip0_54815_1006">
<rect width="175.943" height="36" fill="white" style="fill:white;fill-opacity:1;"/>
</clipPath>
</defs>
</svg>
