<svg width="25" height="24" viewBox="0 0 25 24" fill="none" xmlns="http://www.w3.org/2000/svg">
<path fill-rule="evenodd" clip-rule="evenodd" d="M10.3333 3C10.3333 2.44772 9.88554 2 9.33325 2C8.78097 2 8.33325 2.44774 8.33325 3.00003C7.87422 3.00031 7.474 3.00314 7.13823 3.03057C6.74288 3.06287 6.34966 3.13419 5.97128 3.32698C5.4068 3.6146 4.94785 4.07354 4.66023 4.63803C4.46744 5.01641 4.39612 5.40963 4.36382 5.80497C4.33322 6.17953 4.33324 6.63428 4.33325 7.16142V17.8385C4.33324 18.3657 4.33322 18.8205 4.36382 19.195C4.39612 19.5904 4.46744 19.9836 4.66023 20.362C4.94786 20.9265 5.4068 21.3854 5.97128 21.673C6.34966 21.8658 6.74288 21.9371 7.13823 21.9694C7.51279 22 7.96755 22 8.49469 22H16.1718C16.699 22 17.1537 22 17.5283 21.9694C17.9236 21.9371 18.3168 21.8658 18.6952 21.673C19.2597 21.3854 19.7187 20.9265 20.0063 20.362C20.1991 19.9836 20.2704 19.5904 20.3027 19.195C20.3333 18.8205 20.3333 18.3657 20.3333 17.8386V7.16148C20.3333 6.63437 20.3333 6.17952 20.3027 5.80497C20.2704 5.40963 20.1991 5.01641 20.0063 4.63803C19.7187 4.07354 19.2597 3.6146 18.6952 3.32698C18.3168 3.13419 17.9236 3.06287 17.5283 3.03057C17.1925 3.00314 16.7923 3.00028 16.3333 3C16.3333 2.44772 15.8855 2 15.3333 2C14.781 2 14.3333 2.44772 14.3333 3H13.3333C13.3333 2.44772 12.8855 2 12.3333 2C11.781 2 11.3333 2.44772 11.3333 3H10.3333ZM8.33325 7C7.78097 7 7.33325 7.44772 7.33325 8C7.33325 8.55228 7.78097 9 8.33325 9H14.3333C14.8855 9 15.3333 8.55228 15.3333 8C15.3333 7.44772 14.8855 7 14.3333 7H8.33325ZM8.33325 11C7.78097 11 7.33325 11.4477 7.33325 12C7.33325 12.5523 7.78097 13 8.33325 13H16.3333C16.8855 13 17.3333 12.5523 17.3333 12C17.3333 11.4477 16.8855 11 16.3333 11H8.33325Z" fill="#3673B9" style="fill:#3673B9;fill:color(display-p3 0.2118 0.4510 0.7255);fill-opacity:1;"/>
</svg>
