<svg width="25" height="24" viewBox="0 0 25 24" fill="none" xmlns="http://www.w3.org/2000/svg">
<path d="M3.55124 4.09202C3.33325 4.51984 3.33325 5.0799 3.33325 6.2V9.8C3.33325 10.9201 3.33325 11.4802 3.55124 11.908C3.74299 12.2843 4.04895 12.5903 4.42527 12.782C4.85309 13 5.41315 13 6.53325 13H8.13325C9.25336 13 9.81341 13 10.2412 12.782C10.6176 12.5903 10.9235 12.2843 11.1153 11.908C11.3333 11.4802 11.3333 10.9201 11.3333 9.8V6.2C11.3333 5.0799 11.3333 4.51984 11.1153 4.09202C10.9235 3.71569 10.6176 3.40973 10.2412 3.21799C9.81341 3 9.25336 3 8.13325 3H6.53325C5.41315 3 4.85309 3 4.42527 3.21799C4.04895 3.40973 3.74299 3.71569 3.55124 4.09202Z" fill="#3673B9" style="fill:#3673B9;fill:color(display-p3 0.2118 0.4510 0.7255);fill-opacity:1;"/>
<path d="M13.4855 4.23463C13.3333 4.60218 13.3333 5.06812 13.3333 6C13.3333 6.93188 13.3333 7.39782 13.4855 7.76537C13.6885 8.25542 14.0778 8.64477 14.5679 8.84776C14.9354 9 15.4014 9 16.3333 9H18.3333C19.2651 9 19.7311 9 20.0986 8.84776C20.5887 8.64477 20.978 8.25542 21.181 7.76537C21.3333 7.39782 21.3333 6.93188 21.3333 6C21.3333 5.06812 21.3333 4.60218 21.181 4.23463C20.978 3.74458 20.5887 3.35523 20.0986 3.15224C19.7311 3 19.2651 3 18.3333 3H16.3333C15.4014 3 14.9354 3 14.5679 3.15224C14.0778 3.35523 13.6885 3.74458 13.4855 4.23463Z" fill="#3673B9" style="fill:#3673B9;fill:color(display-p3 0.2118 0.4510 0.7255);fill-opacity:1;"/>
<path d="M13.3333 14.2C13.3333 13.0799 13.3333 12.5198 13.5512 12.092C13.743 11.7157 14.0489 11.4097 14.4253 11.218C14.8531 11 15.4131 11 16.5333 11H18.1333C19.2534 11 19.8134 11 20.2412 11.218C20.6176 11.4097 20.9235 11.7157 21.1153 12.092C21.3333 12.5198 21.3333 13.0799 21.3333 14.2V17.8C21.3333 18.9201 21.3333 19.4802 21.1153 19.908C20.9235 20.2843 20.6176 20.5903 20.2412 20.782C19.8134 21 19.2534 21 18.1333 21H16.5333C15.4131 21 14.8531 21 14.4253 20.782C14.0489 20.5903 13.743 20.2843 13.5512 19.908C13.3333 19.4802 13.3333 18.9201 13.3333 17.8V14.2Z" fill="#3673B9" style="fill:#3673B9;fill:color(display-p3 0.2118 0.4510 0.7255);fill-opacity:1;"/>
<path d="M3.48549 16.2346C3.33325 16.6022 3.33325 17.0681 3.33325 18C3.33325 18.9319 3.33325 19.3978 3.48549 19.7654C3.68848 20.2554 4.07783 20.6448 4.56789 20.8478C4.93543 21 5.40137 21 6.33325 21H8.33325C9.26514 21 9.73108 21 10.0986 20.8478C10.5887 20.6448 10.978 20.2554 11.181 19.7654C11.3333 19.3978 11.3333 18.9319 11.3333 18C11.3333 17.0681 11.3333 16.6022 11.181 16.2346C10.978 15.7446 10.5887 15.3552 10.0986 15.1522C9.73108 15 9.26514 15 8.33325 15H6.33325C5.40137 15 4.93543 15 4.56789 15.1522C4.07783 15.3552 3.68848 15.7446 3.48549 16.2346Z" fill="#3673B9" style="fill:#3673B9;fill:color(display-p3 0.2118 0.4510 0.7255);fill-opacity:1;"/>
</svg>
