<svg width="25" height="24" viewBox="0 0 25 24" fill="none" xmlns="http://www.w3.org/2000/svg">
<path d="M8.66655 4C8.66655 5.10457 7.77111 6 6.66655 6C5.56198 6 4.66655 5.10457 4.66655 4C4.66655 2.89543 5.56198 2 6.66655 2C7.77111 2 8.66655 2.89543 8.66655 4Z" fill="#3673B9" style="fill:#3673B9;fill:color(display-p3 0.2118 0.4510 0.7255);fill-opacity:1;"/>
<path d="M4.26655 11C3.77312 11 3.52641 11 3.27352 10.8302C3.09821 10.7124 2.88927 10.3971 2.84919 10.1898C2.79138 9.89071 2.85469 9.74115 2.98131 9.44202C3.58878 8.00689 5.01008 7 6.66655 7C8.32301 7 9.74431 8.00689 10.3518 9.44202C10.4784 9.74115 10.5417 9.89071 10.4839 10.1898C10.4438 10.3971 10.2349 10.7124 10.0596 10.8302C9.80668 11 9.55997 11 9.06655 11H4.26655Z" fill="#3673B9" style="fill:#3673B9;fill:color(display-p3 0.2118 0.4510 0.7255);fill-opacity:1;"/>
<path d="M8.66655 15C8.66655 16.1046 7.77111 17 6.66655 17C5.56198 17 4.66655 16.1046 4.66655 15C4.66655 13.8954 5.56198 13 6.66655 13C7.77111 13 8.66655 13.8954 8.66655 15Z" fill="#3673B9" style="fill:#3673B9;fill:color(display-p3 0.2118 0.4510 0.7255);fill-opacity:1;"/>
<path d="M4.26655 22C3.77312 22 3.52641 22 3.27352 21.8302C3.09821 21.7124 2.88927 21.3971 2.84919 21.1898C2.79138 20.8907 2.85469 20.7411 2.98131 20.442C3.58878 19.0069 5.01008 18 6.66655 18C8.32301 18 9.74431 19.0069 10.3518 20.442C10.4784 20.7411 10.5417 20.8907 10.4839 21.1898C10.4438 21.3971 10.2349 21.7124 10.0596 21.8302C9.80668 22 9.55997 22 9.06655 22H4.26655Z" fill="#3673B9" style="fill:#3673B9;fill:color(display-p3 0.2118 0.4510 0.7255);fill-opacity:1;"/>
<path d="M11.6665 6.5C11.6665 5.56812 11.6665 5.10218 11.8188 4.73463C12.0218 4.24458 12.4111 3.85523 12.9012 3.65224C13.2687 3.5 13.7347 3.5 14.6665 3.5H19.6665C20.5984 3.5 21.0644 3.5 21.4319 3.65224C21.922 3.85523 22.3113 4.24458 22.5143 4.73463C22.6665 5.10218 22.6665 5.56812 22.6665 6.5C22.6665 7.43188 22.6665 7.89782 22.5143 8.26537C22.3113 8.75542 21.922 9.14477 21.4319 9.34776C21.0644 9.5 20.5984 9.5 19.6665 9.5H14.6665C13.7347 9.5 13.2687 9.5 12.9012 9.34776C12.4111 9.14477 12.0218 8.75542 11.8188 8.26537C11.6665 7.89782 11.6665 7.43188 11.6665 6.5Z" fill="#3673B9" style="fill:#3673B9;fill:color(display-p3 0.2118 0.4510 0.7255);fill-opacity:1;"/>
<path d="M11.8188 15.7346C11.6665 16.1022 11.6665 16.5681 11.6665 17.5C11.6665 18.4319 11.6665 18.8978 11.8188 19.2654C12.0218 19.7554 12.4111 20.1448 12.9012 20.3478C13.2687 20.5 13.7347 20.5 14.6665 20.5H19.6665C20.5984 20.5 21.0644 20.5 21.4319 20.3478C21.922 20.1448 22.3113 19.7554 22.5143 19.2654C22.6665 18.8978 22.6665 18.4319 22.6665 17.5C22.6665 16.5681 22.6665 16.1022 22.5143 15.7346C22.3113 15.2446 21.922 14.8552 21.4319 14.6522C21.0644 14.5 20.5984 14.5 19.6665 14.5H14.6665C13.7347 14.5 13.2687 14.5 12.9012 14.6522C12.4111 14.8552 12.0218 15.2446 11.8188 15.7346Z" fill="#3673B9" style="fill:#3673B9;fill:color(display-p3 0.2118 0.4510 0.7255);fill-opacity:1;"/>
</svg>
