<svg width="25" height="24" viewBox="0 0 25 24" fill="none" xmlns="http://www.w3.org/2000/svg">
<path d="M4.37361 2.29289C3.98309 1.90237 3.34992 1.90237 2.9594 2.29289C2.56887 2.68342 2.56887 3.31658 2.9594 3.70711L11.6665 12.4142V20C11.6665 20.5523 12.1142 21 12.6665 21C13.2188 21 13.6665 20.5523 13.6665 20V14.4142L15.6665 16.4142V20C15.6665 20.5523 16.1142 21 16.6665 21C17.2188 21 17.6665 20.5523 17.6665 20V18.4142L20.9594 21.7071C21.3499 22.0976 21.9831 22.0976 22.3736 21.7071C22.7641 21.3166 22.7641 20.6834 22.3736 20.2929L4.37361 2.29289Z" fill="#3673B9" style="fill:#3673B9;fill:color(display-p3 0.2118 0.4510 0.7255);fill-opacity:1;"/>
<path d="M19.6665 14.786V4C19.6665 3.44772 20.1142 3 20.6665 3C21.2188 3 21.6665 3.44772 21.6665 4V16.786L19.6665 14.786Z" fill="#3673B9" style="fill:#3673B9;fill:color(display-p3 0.2118 0.4510 0.7255);fill-opacity:1;"/>
<path d="M15.6665 10.786L17.6665 12.786V8C17.6665 7.44772 17.2188 7 16.6665 7C16.1142 7 15.6665 7.44772 15.6665 8V10.786Z" fill="#3673B9" style="fill:#3673B9;fill:color(display-p3 0.2118 0.4510 0.7255);fill-opacity:1;"/>
<path d="M9.6665 16C9.6665 15.4477 9.21879 15 8.6665 15C8.11422 15 7.6665 15.4477 7.6665 16V20C7.6665 20.5523 8.11422 21 8.6665 21C9.21879 21 9.6665 20.5523 9.6665 20V16Z" fill="#3673B9" style="fill:#3673B9;fill:color(display-p3 0.2118 0.4510 0.7255);fill-opacity:1;"/>
<path d="M4.6665 18C5.21879 18 5.6665 18.4477 5.6665 19V20C5.6665 20.5523 5.21879 21 4.6665 21C4.11422 21 3.6665 20.5523 3.6665 20V19C3.6665 18.4477 4.11422 18 4.6665 18Z" fill="#3673B9" style="fill:#3673B9;fill:color(display-p3 0.2118 0.4510 0.7255);fill-opacity:1;"/>
</svg>
